Coordinates
version=1
nRows=16
nColumns=22
inDegrees=yes

Units are S.I. units (second, meters, Newtons, ...)
If the header above contains a line with 'inDegrees', this indicates whether rotational values are in degrees (yes) or radians (no).

endheader
time	pelvis_tilt	pelvis_list	pelvis_rotation	pelvis_tx	pelvis_ty	pelvis_tz	hip_flexion_r	hip_adduction_r	hip_rotation_r	knee_angle_r	ankle_angle_r	subtalar_angle_r	hip_flexion_l	hip_adduction_l	hip_rotation_l	knee_angle_l	ankle_angle_l	subtalar_angle_l	lumbar_extension	lumbar_bending	lumbar_rotation
      4.03000000	      2.74715060	     -3.19164900	    -95.18552979	      0.44389181	      0.93735131	      0.83874414	     17.27375451	     -6.52055125	     -5.37607195	    -50.66705951	     12.22481389	      6.90324051	      8.35688913	      4.64880755	     -5.51333123	    -23.35014913	      9.32111649	     -5.21182917	     -9.24775460	     -7.80635120	     -9.41256827
      4.04000000	      2.69252018	     -3.25326246	    -94.96026126	      0.44434967	      0.93776927	      0.84168754	     17.12403472	     -6.65073353	     -5.87102806	    -48.74326762	     12.89484929	      6.93003303	      8.00473090	      4.66715077	     -5.31202088	    -23.18670043	      9.36551722	     -5.29223053	     -9.39621972	     -7.68258614	     -9.75773861
      4.05000000	      2.64521816	     -3.27855208	    -94.72303702	      0.44478342	      0.93809962	      0.84455252	     16.94308189	     -6.80642993	     -6.43465185	    -46.78868159	     13.50236032	      6.88896397	      7.72350188	      4.67971178	     -5.12985135	    -23.07253571	      9.44667512	     -5.34832708	     -9.49690647	     -7.56081706	    -10.08132611
      4.06000000	      2.58099319	     -3.34711410	    -94.52252012	      0.44507399	      0.93854860	      0.84737825	     16.62910998	     -6.92083248	     -6.97635226	    -44.77772732	     13.97936142	      6.70982207	      7.35852432	      4.67526379	     -4.92773002	    -22.88982388	      9.47643856	     -5.43032138	     -9.63629501	     -7.43249100	    -10.29521109
      4.07000000	      2.51708348	     -3.39041709	    -94.32042590	      0.44529511	      0.93892863	      0.85010889	     16.28621408	     -7.02335267	     -7.53630298	    -42.78869761	     14.36536616	      6.49736623	      7.04647042	      4.65596241	     -4.74676969	    -22.74357897	      9.52656905	     -5.49787088	     -9.74523973	     -7.30425497	    -10.47370056
      4.08000000	      2.44671019	     -3.41003007	    -94.11776864	      0.44542829	      0.93924298	      0.85274352	     15.91789768	     -7.09638634	     -8.09828785	    -40.84801574	     14.63443728	      6.29292111	      6.78756577	      4.61492400	     -4.58006027	    -22.63959016	      9.60242047	     -5.54530770	     -9.82384946	     -7.17001655	    -10.63362043
      4.09000000	      2.37605914	     -3.45581196	    -93.95181802	      0.44540207	      0.93960167	      0.85530906	     15.47933455	     -7.12714092	     -8.59263750	    -38.97099413	     14.77117880	      6.00181410	      6.47886982	      4.56860089	     -4.40528210	    -22.48870065	      9.65138603	     -5.58318867	     -9.92614254	     -7.05233683	    -10.66467178
      4.10000000	      2.29282935	     -3.45389432	    -93.76511206	      0.44530851	      0.93983500	      0.85775237	     15.06224331	     -7.11741651	     -9.07371037	    -37.21271245	     14.77949427	      5.78286373	      6.27195205	      4.48790252	     -4.24805911	    -22.41802441	      9.74764413	     -5.58110735	     -9.97540528	     -6.91667013	    -10.71984973
      4.11000000	      2.21810084	     -3.47400168	    -93.59759182	      0.44508575	      0.94007958	      0.86011635	     14.60290084	     -7.08020543	     -9.47532913	    -35.58942381	     14.69224095	      5.51825014	      6.03234360	      4.40953444	     -4.08459099	    -22.31863274	      9.83854794	     -5.53252733	    -10.04646433	     -6.80297368	    -10.67960020
      4.12000000	      2.12922975	     -3.44034425	    -93.40600728	      0.44480258	      0.94019150	      0.86235859	     14.18883327	     -6.99994958	     -9.83773325	    -34.12835709	     14.46735069	      5.32880260	      5.90123842	      4.29547856	     -3.93543681	    -22.29826358	      9.97443693	     -5.45473020	    -10.05728858	     -6.66889680	    -10.66773889
      4.13000000	      2.04056321	     -3.41676758	    -93.21492630	      0.44442219	      0.94029230	      0.86452828	     13.75225168	     -6.89295575	    -10.13997809	    -32.82681758	     14.18483954	      5.12164415	      5.76505782	      4.17560203	     -3.76859034	    -22.27863038	     10.11636766	     -5.33007062	    -10.07351965	     -6.54198942	    -10.60660912
      4.14000000	      1.95548823	     -3.40312183	    -93.01880252	      0.44396118	      0.94038413	      0.86663299	     13.29483463	     -6.76596672	    -10.38433318	    -31.68141137	     13.89203294	      4.87462013	      5.62327296	      4.05370375	     -3.58107399	    -22.25913410	     10.25324924	     -5.13508926	    -10.09512608	     -6.42406377	    -10.51449012
      4.15000000	      1.85252908	     -3.35286821	    -92.79667451	      0.44345088	      0.94039070	      0.86863862	     12.86899999	     -6.60221575	    -10.60818423	    -30.68905676	     13.55049788	      4.65506498	      5.55909597	      3.90043495	     -3.38516157	    -22.29559128	     10.41876500	     -4.95471026	    -10.07575055	     -6.28374941	    -10.43123332
      4.16000000	      1.74486901	     -3.25932982	    -92.56465666	      0.44288657	      0.94031748	      0.87051660	     12.49229426	     -6.40951224	    -10.77350167	    -29.83116322	     13.17098321	      4.47673662	      5.57571979	      3.73821775	     -3.15311940	    -22.37682077	     10.57142599	     -4.83568041	    -10.00725476	     -6.13607265	    -10.34585465
      4.17000000	      1.61210815	     -3.22772328	    -92.31024277	      0.44227983	      0.94035242	      0.87244843	     12.00268945	     -6.18983130	    -11.01224078	    -29.03604833	     12.90001654	      4.14862556	      5.51412684	      3.53867443	     -2.95612583	    -22.44165136	     10.75707032	     -4.61124077	     -9.99098012	     -5.95879329	    -10.28033662
      4.18000000	      1.46129079	     -3.15447675	    -92.05303979	      0.44159832	      0.94034126	      0.87425449	     11.55271718	     -5.92321088	    -11.21020371	    -28.30806540	     12.64422995	      3.83132449	      5.52721262	      3.31959579	     -2.70092318	    -22.54445613	     10.90986494	     -4.44002386	     -9.92910734	     -5.76554742	    -10.18934582
